<mxfile host="app.diagrams.net" modified="2024-05-02T17:22:37.903Z" agent="Mozilla/5.0 (Macintosh; Intel Mac OS X 10_15_7) AppleWebKit/537.36 (KHTML, like Gecko) Chrome/123.0.0.0 Safari/537.36 Edg/123.0.0.0" version="24.3.1" etag="OHKxk08UIG-z7uFA0nbB" type="github">
  <diagram name="第 1 页" id="GF2ubIr9-jqhCTHpg8I1">
    <mxGraphModel>
      <root>
        <mxCell id="0" />
        <mxCell id="1" parent="0" />
      </root>
    </mxGraphModel>
  </diagram>
</mxfile>
